<?xml version="1.0" encoding="UTF-8"?>
<svg version="1.1" xmlns="http://www.w3.org/2000/svg" width="3508" height="2480">
<path d="M0 0 C0.99 0 1.98 0 3 0 C3 0.66 3 1.32 3 2 C4.32 2 5.64 2 7 2 C7 1.34 7 0.68 7 0 C12.28 0 17.56 0 23 0 C23 1.65 23 3.3 23 5 C21.68 5 20.36 5 19 5 C19 5.99 19 6.98 19 8 C17.515 8.495 17.515 8.495 16 9 C15.67 9.66 15.34 10.32 15 11 C13.515 11.495 13.515 11.495 12 12 C9.63493157 14.00121175 9.0106678 14.96799661 8 18 C6.515 18.99 6.515 18.99 5 20 C4.38125 20.61875 3.7625 21.2375 3.125 21.875 C1 24 1 24 -1.5 25.9375 C-4.09937373 28.08198333 -5.940907 30.34310581 -8 33 C-10.0625 35.3125 -10.0625 35.3125 -12 37 C-12.99 37 -13.98 37 -15 37 C-15 37.99 -15 38.98 -15 40 C-16.97956942 41.69088222 -18.97945196 43.35830472 -21 45 C-21 45.66 -21 46.32 -21 47 C-22.485 47.495 -22.485 47.495 -24 48 C-25.34423339 49.65788785 -26.67618483 51.32576317 -28 53 C-28.886875 53.70125 -29.77375 54.4025 -30.6875 55.125 C-33.25247789 56.86120977 -33.25247789 56.86120977 -34 60 C-34.99 60 -35.98 60 -37 60 C-37 60.99 -37 61.98 -37 63 C-37.99 63 -38.98 63 -40 63 C-40 63.99 -40 64.98 -40 66 C-40.66 66.66 -41.32 67.32 -42 68 C-42.7425 69.051875 -42.7425 69.051875 -43.5 70.125 C-43.995 70.74375 -44.49 71.3625 -45 72 C-45.66 72 -46.32 72 -47 72 C-47.33 73.32 -47.66 74.64 -48 76 C-48.66 76 -49.32 76 -50 76 C-50 76.99 -50 77.98 -50 79 C-50.99 79 -51.98 79 -53 79 C-53.12375 79.598125 -53.2475 80.19625 -53.375 80.8125 C-54.17928387 83.62749353 -55.47936021 85.51940942 -57.625 87.5 C-59.33786231 89.02943497 -59.33786231 89.02943497 -59 92 C-59.99 92 -60.98 92 -62 92 C-62.144375 92.61875 -62.28875 93.2375 -62.4375 93.875 C-63 96 -63 96 -64 98 C-64.66 98 -65.32 98 -66 98 C-66.12375 98.5775 -66.2475 99.155 -66.375 99.75 C-67.00910065 102.03276234 -67.88771841 103.91447201 -69 106 C-69.33 106.66 -69.66 107.32 -70 108 C-70.66 108 -71.32 108 -72 108 C-72.12375 108.969375 -72.2475 109.93875 -72.375 110.9375 C-72.684375 112.4534375 -72.684375 112.4534375 -73 114 C-73.66 114.33 -74.32 114.66 -75 115 C-75.65555119 117.52733235 -75.65555119 117.52733235 -76 120 C-77.485 120.495 -77.485 120.495 -79 121 C-79 122.98 -79 124.96 -79 127 C-79.66 127 -80.32 127 -81 127 C-81.04898437 127.63808594 -81.09796875 128.27617188 -81.1484375 128.93359375 C-81.22320313 129.75988281 -81.29796875 130.58617187 -81.375 131.4375 C-81.44460938 132.26121094 -81.51421875 133.08492187 -81.5859375 133.93359375 C-81.72257812 134.61550781 -81.85921875 135.29742188 -82 136 C-82.66 136.33 -83.32 136.66 -84 137 C-84.39156228 139.32506659 -84.39156228 139.32506659 -84.5 142 C-84.65625 144.75 -84.65625 144.75 -85 147 C-85.66 147.33 -86.32 147.66 -87 148 C-87.33 318.94 -87.66 489.88 -88 666 C-88.66 666.33 -89.32 666.66 -90 667 C-90.33 668.32 -90.66 669.64 -91 671 C-93.97 671.66 -96.94 672.32 -100 673 C-100 673.33 -100 673.66 -100 674 C-102.31 674.66 -104.62 675.32 -107 676 C-107 676.33 -107 676.66 -107 677 C-110.96 677.33 -114.92 677.66 -119 678 C-119 678.66 -119 679.32 -119 680 C-122.3 680.33 -125.6 680.66 -129 681 C-129 681.99 -129 682.98 -129 684 C-131.31 684.33 -133.62 684.66 -136 685 C-136 685.66 -136 686.32 -136 687 C-139.3 687.66 -142.6 688.32 -146 689 C-146 689.33 -146 689.66 -146 690 C-150.29 690.33 -154.58 690.66 -159 691 C-159 691.66 -159 692.32 -159 693 C-159.63808594 693.12117188 -160.27617188 693.24234375 -160.93359375 693.3671875 C-162.17302734 693.61855469 -162.17302734 693.61855469 -163.4375 693.875 C-164.26121094 694.03742187 -165.08492187 694.19984375 -165.93359375 694.3671875 C-166.61550781 694.57601562 -167.29742188 694.78484375 -168 695 C-168.33 695.66 -168.66 696.32 -169 697 C-171.28515625 697.4140625 -171.28515625 697.4140625 -174.0625 697.625 C-174.98160156 697.69976563 -175.90070313 697.77453125 -176.84765625 697.8515625 C-177.55792969 697.90054688 -178.26820313 697.94953125 -179 698 C-179 698.66 -179 699.32 -179 700 C-182.63 700.33 -186.26 700.66 -190 701 C-190 701.66 -190 702.32 -190 703 C-193.63 703.33 -197.26 703.66 -201 704 C-201 704.66 -201 705.32 -201 706 C-201.54527344 706.10957031 -202.09054687 706.21914062 -202.65234375 706.33203125 C-208.25535065 707.51009937 -213.6054387 709.087035 -219 711 C-219 711.66 -219 712.32 -219 713 C-222.3 713.33 -225.6 713.66 -229 714 C-229 714.66 -229 715.32 -229 716 C-229.71027344 716.04898438 -230.42054688 716.09796875 -231.15234375 716.1484375 C-232.07144531 716.22320313 -232.99054688 716.29796875 -233.9375 716.375 C-234.85402344 716.44460938 -235.77054688 716.51421875 -236.71484375 716.5859375 C-237.46894531 716.72257812 -238.22304687 716.85921875 -239 717 C-239.33 717.66 -239.66 718.32 -240 719 C-242.25946584 719.35557331 -244.4899777 719.44330506 -246.7734375 719.55859375 C-249.46030833 720.09125411 -250.12843606 721.08351852 -252 723 C-253.97265625 723.44140625 -253.97265625 723.44140625 -256.0625 723.5625 C-260.00162681 723.58516344 -260.00162681 723.58516344 -262 726 C-264.625 726.625 -264.625 726.625 -267 727 C-267 727.66 -267 728.32 -267 729 C-267.78246094 729.04898438 -268.56492187 729.09796875 -269.37109375 729.1484375 C-270.38300781 729.22320313 -271.39492187 729.29796875 -272.4375 729.375 C-273.44683594 729.44460938 -274.45617188 729.51421875 -275.49609375 729.5859375 C-276.32238281 729.72257812 -277.14867187 729.85921875 -278 730 C-278.33 730.66 -278.66 731.32 -279 732 C-281.32288812 732.39310414 -283.61845176 732.50749695 -285.96875 732.65625 C-286.6390625 732.7696875 -287.309375 732.883125 -288 733 C-288.33 733.66 -288.66 734.32 -289 735 C-291.50390625 735.4140625 -291.50390625 735.4140625 -294.5625 735.625 C-295.57441406 735.69976563 -296.58632812 735.77453125 -297.62890625 735.8515625 C-298.41136719 735.90054688 -299.19382812 735.94953125 -300 736 C-300 736.66 -300 737.32 -300 738 C-303.3 738.66 -306.6 739.32 -310 740 C-310 740.66 -310 741.32 -310 742 C-312.97 742.33 -315.94 742.66 -319 743 C-319 743.66 -319 744.32 -319 745 C-320.7015625 745.185625 -320.7015625 745.185625 -322.4375 745.375 C-323.613125 745.58125 -324.78875 745.7875 -326 746 C-326.33 746.66 -326.66 747.32 -327 748 C-329.72265625 748.4140625 -329.72265625 748.4140625 -333.0625 748.625 C-334.16722656 748.69976563 -335.27195312 748.77453125 -336.41015625 748.8515625 C-337.26480469 748.90054688 -338.11945313 748.94953125 -339 749 C-339 749.66 -339 750.32 -339 751 C-341.97 751.33 -344.94 751.66 -348 752 C-348 752.66 -348 753.32 -348 754 C-350.40545638 755.20272819 -351.94996953 755.10071472 -354.625 755.0625 C-355.44226562 755.05347656 -356.25953125 755.04445313 -357.1015625 755.03515625 C-358.04128906 755.01775391 -358.04128906 755.01775391 -359 755 C-358.505 756.485 -358.505 756.485 -358 758 C-358.71027344 758.04898438 -359.42054687 758.09796875 -360.15234375 758.1484375 C-361.07144531 758.22320313 -361.99054688 758.29796875 -362.9375 758.375 C-363.85402344 758.44460938 -364.77054688 758.51421875 -365.71484375 758.5859375 C-366.46894531 758.72257812 -367.22304687 758.85921875 -368 759 C-368.33 759.66 -368.66 760.32 -369 761 C-370.84765625 761.6328125 -370.84765625 761.6328125 -373.0625 762.125 C-374.16271484 762.37636719 -374.16271484 762.37636719 -375.28515625 762.6328125 C-375.85105469 762.75398438 -376.41695312 762.87515625 -377 763 C-377 763.33 -377 763.66 -377 764 C-380.3 764.66 -383.6 765.32 -387 766 C-386.67 766.66 -386.34 767.32 -386 768 C-389.96 768 -393.92 768 -398 768 C-398 768.99 -398 769.98 -398 771 C-401.63 771 -405.26 771 -409 771 C-409 771.99 -409 772.98 -409 774 C-411.64 774.33 -414.28 774.66 -417 775 C-417.33 776.32 -417.66 777.64 -418 779 C-428.56 779 -439.12 779 -450 779 C-450.99 776.69 -451.98 774.38 -453 772 C-453.66 771.67 -454.32 771.34 -455 771 C-455 770.01 -455 769.02 -455 768 C-455.66 768 -456.32 768 -457 768 C-457 730.05 -457 692.1 -457 653 C-456.34 653 -455.68 653 -455 653 C-455 648.71 -455 644.42 -455 640 C-454.34 639.67 -453.68 639.34 -453 639 C-452.67 621.51 -452.34 604.02 -452 586 C-451.34 586.66 -450.68 587.32 -450 588 C-449.98969254 587.44289841 -449.97938507 586.88579681 -449.96876526 586.31181335 C-449.8606998 580.52066308 -449.74610173 574.72966839 -449.62768555 568.9387207 C-449.58433687 566.7766444 -449.54266175 564.61453387 -449.50268555 562.45239258 C-449.44498156 559.34706298 -449.38128728 556.24190564 -449.31640625 553.13671875 C-449.29969376 552.16788254 -449.28298126 551.19904633 -449.26576233 550.20085144 C-449.24581711 549.3001442 -449.22587189 548.39943695 -449.20532227 547.47143555 C-449.18200584 546.28229805 -449.18200584 546.28229805 -449.15821838 545.06913757 C-449 543 -449 543 -448 540 C-447.34 540 -446.68 540 -446 540 C-446.00222061 539.44733963 -446.00444122 538.89467926 -446.00672913 538.32527161 C-446.02887515 532.56638232 -446.04394553 526.80750515 -446.05493164 521.04858398 C-446.05995629 518.90014148 -446.06677708 516.7517024 -446.07543945 514.60327148 C-446.08758678 511.5128495 -446.09324705 508.42247278 -446.09765625 505.33203125 C-446.10281754 504.37351761 -446.10797882 503.41500397 -446.11329651 502.42744446 C-446.11337204 501.52688828 -446.11344757 500.62633209 -446.11352539 499.69848633 C-446.115746 498.91016922 -446.11796661 498.12185211 -446.12025452 497.30964661 C-445.98936816 494.79580145 -445.54820896 492.45389823 -445 490 C-444.34 490 -443.68 490 -443 490 C-443.01160156 489.1440625 -443.02320313 488.288125 -443.03515625 487.40625 C-443.14350005 471.92856489 -442.53219239 456.46613374 -442 441 C-441.67 441 -441.34 441 -441 441 C-439.93996755 435.72624425 -439.78444265 430.58343483 -439.68359375 425.2265625 C-439.66281265 424.3028183 -439.64203156 423.3790741 -439.62062073 422.42733765 C-439.55553881 419.49329656 -439.49643357 416.55917038 -439.4375 413.625 C-439.3942754 411.62889765 -439.35065988 409.63280373 -439.30664062 407.63671875 C-439.1999001 402.75789844 -439.09851752 397.87899301 -439 393 C-438.34 392.67 -437.68 392.34 -437 392 C-436.67 380.12 -436.34 368.24 -436 356 C-435.01 356 -434.02 356 -433 356 C-433 353.03 -433 350.06 -433 347 C-432.01 346.67 -431.02 346.34 -430 346 C-429.63451555 344.67511887 -429.3062434 343.33981486 -429 342 C-427.5625 339.75 -427.5625 339.75 -426 338 C-425.34 338 -424.68 338 -424 338 C-424 337.34 -424 336.68 -424 336 C-422.68 336 -421.36 336 -420 336 C-420 335.01 -420 334.02 -420 333 C-419.360625 332.87625 -418.72125 332.7525 -418.0625 332.625 C-417.381875 332.41875 -416.70125 332.2125 -416 332 C-415.67 331.34 -415.34 330.68 -415 330 C-413 329.66666667 -411 329.33333333 -409 329 C-408.67 328.34 -408.34 327.68 -408 327 C-405.49609375 326.5859375 -405.49609375 326.5859375 -402.4375 326.375 C-400.91962891 326.26285156 -400.91962891 326.26285156 -399.37109375 326.1484375 C-398.58863281 326.09945313 -397.80617188 326.05046875 -397 326 C-397 325.01 -397 324.02 -397 323 C-393.7 323 -390.4 323 -387 323 C-387 322.01 -387 321.02 -387 320 C-383.7 319.67 -380.4 319.34 -377 319 C-377 318.34 -377 317.68 -377 317 C-376.36191406 316.95101563 -375.72382812 316.90203125 -375.06640625 316.8515625 C-373.82697266 316.73941406 -373.82697266 316.73941406 -372.5625 316.625 C-371.73878906 316.55539062 -370.91507813 316.48578125 -370.06640625 316.4140625 C-369.38449219 316.27742188 -368.70257812 316.14078125 -368 316 C-367.67 315.34 -367.34 314.68 -367 314 C-364.71484375 313.5859375 -364.71484375 313.5859375 -361.9375 313.375 C-360.55884766 313.26285156 -360.55884766 313.26285156 -359.15234375 313.1484375 C-358.44207031 313.09945313 -357.73179688 313.05046875 -357 313 C-357 312.34 -357 311.68 -357 311 C-354.03 310.67 -351.06 310.34 -348 310 C-348.495 308.515 -348.495 308.515 -349 307 C-345.7 306.67 -342.4 306.34 -339 306 C-339 305.34 -339 304.68 -339 304 C-335.92382812 303.70703125 -335.92382812 303.70703125 -332.84765625 303.4140625 C-332.23792969 303.27742188 -331.62820313 303.14078125 -331 303 C-330.67 302.34 -330.34 301.68 -330 301 C-327.85546875 300.3671875 -327.85546875 300.3671875 -325.1875 299.875 C-324.31480469 299.70742187 -323.44210937 299.53984375 -322.54296875 299.3671875 C-320 299 -320 299 -316 299 C-316.33 304.61 -316.66 310.22 -317 316 C-317.66 316 -318.32 316 -319 316 C-319.33 324.58 -319.66 333.16 -320 342 C-320.66 342.33 -321.32 342.66 -322 343 C-322.33 350.92 -322.66 358.84 -323 367 C-323.66 367.33 -324.32 367.66 -325 368 C-325.33 376.25 -325.66 384.5 -326 393 C-326.66 392.34 -327.32 391.68 -328 391 C-328.05534912 391.69150146 -328.11069824 392.38300293 -328.16772461 393.09545898 C-328.41963531 396.20987214 -328.67847351 399.32367095 -328.9375 402.4375 C-329.02451172 403.52611328 -329.11152344 404.61472656 -329.20117188 405.73632812 C-329.28818359 406.77080078 -329.37519531 407.80527344 -329.46484375 408.87109375 C-329.543396 409.82943115 -329.62194824 410.78776855 -329.70288086 411.77514648 C-330 414 -330 414 -331 415 C-331.228226 416.8499996 -331.39504938 418.70765514 -331.53515625 420.56640625 C-331.62216797 421.69111328 -331.70917969 422.81582031 -331.79882812 423.97460938 C-331.88583984 425.15861328 -331.97285156 426.34261719 -332.0625 427.5625 C-332.15337891 428.75037109 -332.24425781 429.93824219 -332.33789062 431.16210938 C-332.56266136 434.10778905 -332.78317196 437.05372674 -333 440 C-333.33 440 -333.66 440 -334 440 C-334.66 444.29 -335.32 448.58 -336 453 C-335.67 452.67 -335.34 452.34 -335 452 C-332.67451993 451.30643577 -330.34119555 450.63850788 -328 450 C-328 449.67 -328 449.34 -328 449 C-325.36 448.67 -322.72 448.34 -320 448 C-320 447.34 -320 446.68 -320 446 C-317.03 445.67 -314.06 445.34 -311 445 C-310.67 444.01 -310.34 443.02 -310 442 C-308.02 441.67 -306.04 441.34 -304 441 C-304 440.34 -304 439.68 -304 439 C-302.865625 438.87625 -301.73125 438.7525 -300.5625 438.625 C-299.386875 438.41875 -298.21125 438.2125 -297 438 C-296.67 437.34 -296.34 436.68 -296 436 C-292.04 436 -288.08 436 -284 436 C-283.29473798 439.5263101 -282.87644498 441.6576063 -283.05419922 445.04003906 C-283.09108856 445.79722229 -283.12797791 446.55440552 -283.16598511 447.33453369 C-283.2117569 448.13679382 -283.25752869 448.93905396 -283.3046875 449.765625 C-283.34812286 450.5996283 -283.39155823 451.43363159 -283.43630981 452.29290771 C-283.52920432 454.04797456 -283.62520364 455.8028795 -283.72412109 457.55761719 C-283.87523414 460.25417823 -284.01448775 462.95116964 -284.15234375 465.6484375 C-284.24408931 467.35420459 -284.33651332 469.05993535 -284.4296875 470.765625 C-284.47141083 471.57598206 -284.51313416 472.38633911 -284.55612183 473.22125244 C-284.88466307 478.88466307 -284.88466307 478.88466307 -286 480 C-286.15128789 481.41016506 -286.23791214 482.82736392 -286.29711914 484.24438477 C-286.33708511 485.14524307 -286.37705109 486.04610138 -286.41822815 486.97425842 C-286.45681442 487.95341721 -286.4954007 488.93257599 -286.53515625 489.94140625 C-286.57813339 490.93881332 -286.62111053 491.9362204 -286.66539001 492.96385193 C-286.80221723 496.16323049 -286.93242475 499.36284049 -287.0625 502.5625 C-287.15386242 504.72592985 -287.24565359 506.88934164 -287.33789062 509.05273438 C-287.56357712 514.36828968 -287.78382308 519.68404993 -288 525 C-288.66 525 -289.32 525 -290 525 C-289.99476318 525.67538818 -289.98952637 526.35077637 -289.98413086 527.04663086 C-289.85409552 546.72147131 -290.30182737 566.33975576 -291 586 C-291.33 586 -291.66 586 -292 586 C-293.11165232 590.4378561 -293.11527763 594.76956386 -293.0625 599.3125 C-293.05573242 600.42334961 -293.05573242 600.42334961 -293.04882812 601.55664062 C-293.03712175 603.37112899 -293.01918898 605.18557534 -293 607 C-291.50256881 605.50256881 -291.66797307 604.01175761 -291.4375 601.9375 C-291.293125 600.638125 -291.14875 599.33875 -291 598 C-290.01 597.67 -289.02 597.34 -288 597 C-288.061875 595.783125 -288.12375 594.56625 -288.1875 593.3125 C-288.201488 589.33291389 -287.19846889 587.34167271 -285 584 C-284.28598768 580.80604974 -284.28598768 580.80604974 -284 578 C-283.34 578 -282.68 578 -282 578 C-281.67 574.7 -281.34 571.4 -281 568 C-280.34 568 -279.68 568 -279 568 C-278.87625 566.72125 -278.7525 565.4425 -278.625 564.125 C-278.25 560.25 -278.25 560.25 -276 558 C-275.835 556.845 -275.67 555.69 -275.5 554.5 C-275 551 -275 551 -273 549 C-272.25592964 547.23107801 -271.57556153 545.43486275 -270.9375 543.625 C-270.59589844 542.66851563 -270.25429687 541.71203125 -269.90234375 540.7265625 C-269.16291355 538.4922669 -268.52676875 536.29171558 -268 534 C-267.34 534 -266.68 534 -266 534 C-265.93941406 533.37351562 -265.87882812 532.74703125 -265.81640625 532.1015625 C-265.73261719 531.28429688 -265.64882812 530.46703125 -265.5625 529.625 C-265.44068359 528.40683594 -265.44068359 528.40683594 -265.31640625 527.1640625 C-265 525 -265 525 -264 523 C-263.34 523 -262.68 523 -262 523 C-262 520.36 -262 517.72 -262 515 C-261.34 515 -260.68 515 -260 515 C-259.67 512.03 -259.34 509.06 -259 506 C-258.34 506 -257.68 506 -257 506 C-256.80664062 505.2265625 -256.61328125 504.453125 -256.4140625 503.65625 C-255.87553596 501.50214382 -255.33508771 499.34851739 -254.79296875 497.1953125 C-254.32211025 495.29796151 -253.86210761 493.39777607 -253.42578125 491.4921875 C-252.20683453 486.20683453 -252.20683453 486.20683453 -250 484 C-249.60235737 482.01178687 -249.26224651 480.01055661 -249 478 C-248.34 478 -247.68 478 -247 478 C-246.67 474.37 -246.34 470.74 -246 467 C-245.01 467.33 -244.02 467.66 -243 468 C-243 465.36 -243 462.72 -243 460 C-242.01 459.67 -241.02 459.34 -240 459 C-239.92652344 457.93458984 -239.92652344 457.93458984 -239.8515625 456.84765625 C-239.73941406 455.46900391 -239.73941406 455.46900391 -239.625 454.0625 C-239.55539062 453.14597656 -239.48578125 452.22945312 -239.4140625 451.28515625 C-239.27742188 450.53105469 -239.14078125 449.77695313 -239 449 C-238.34 448.67 -237.68 448.34 -237 448 C-236.53476937 446.10466658 -236.53476937 446.10466658 -236.375 443.9375 C-236.189375 441.9884375 -236.189375 441.9884375 -236 440 C-235.01 439.67 -234.02 439.34 -233 439 C-233 436.03 -233 433.06 -233 430 C-232.01 430 -231.02 430 -230 430 C-230 427.03 -230 424.06 -230 421 C-229.01 420.67 -228.02 420.34 -227 420 C-227.061875 418.783125 -227.12375 417.56625 -227.1875 416.3125 C-227.19448516 412.33794556 -226.2639885 410.30890627 -224 407 C-223.31039038 405.00779443 -222.63920943 403.00894394 -222 401 C-221.67 400.67 -221.34 400.34 -221 400 C-220.63239269 397.67182036 -220.29758419 395.3381615 -220 393 C-219.34 393 -218.68 393 -218 393 C-217.67 390.03 -217.34 387.06 -217 384 C-216.34 384 -215.68 384 -215 384 C-214.67 380.7 -214.34 377.4 -214 374 C-213.34 374 -212.68 374 -212 374 C-210.09502381 368.62796714 -208.55039091 363.3621444 -207.52734375 357.75 C-207.35332031 357.1725 -207.17929688 356.595 -207 356 C-206.34 355.67 -205.68 355.34 -205 355 C-204.53476937 353.10466658 -204.53476937 353.10466658 -204.375 350.9375 C-204.189375 348.9884375 -204.189375 348.9884375 -204 347 C-203.01 346.67 -202.02 346.34 -201 346 C-201.04125 344.72125 -201.0825 343.4425 -201.125 342.125 C-201.1953125 339.9453125 -201.1953125 339.9453125 -201 338 C-200.34 337.34 -199.68 336.68 -199 336 C-198.855625 334.906875 -198.71125 333.81375 -198.5625 332.6875 C-197.99099007 328.94093491 -197.08790177 327.09009461 -195 324 C-194.31903578 322.67391178 -193.64669414 321.34313399 -193 320 C-192.34 320 -191.68 320 -191 320 C-191 319.01 -191 318.02 -191 317 C-191.350625 317.474375 -191.70125 317.94875 -192.0625 318.4375 C-194.84163543 320.67873825 -197.5144717 320.67117658 -201 321 C-201 321.66 -201 322.32 -201 323 C-201.78246094 323.12117188 -202.56492187 323.24234375 -203.37109375 323.3671875 C-204.38300781 323.53476563 -205.39492187 323.70234375 -206.4375 323.875 C-207.44683594 324.03742188 -208.45617188 324.19984375 -209.49609375 324.3671875 C-210.32238281 324.57601563 -211.14867187 324.78484375 -212 325 C-212.33 325.66 -212.66 326.32 -213 327 C-215.06640625 327.4140625 -215.06640625 327.4140625 -217.5625 327.625 C-218.80193359 327.73714844 -218.80193359 327.73714844 -220.06640625 327.8515625 C-220.70449219 327.90054687 -221.34257813 327.94953125 -222 328 C-221.67 328.66 -221.34 329.32 -221 330 C-227.625 330.25 -227.625 330.25 -231 328 C-231.2487793 326.02880859 -231.2487793 326.02880859 -231.07421875 323.6484375 C-230.99204102 322.37226562 -230.99204102 322.37226562 -230.90820312 321.0703125 C-230.83537109 320.18085937 -230.76253906 319.29140625 -230.6875 318.375 C-230.62626953 317.4778125 -230.56503906 316.580625 -230.50195312 315.65625 C-230.34843467 313.43613694 -230.18056839 311.21805021 -230 309 C-229.34 308.67 -228.68 308.34 -228 308 C-227.52719123 306.18188667 -227.52719123 306.18188667 -227.375 304 C-227.26091797 302.78570313 -227.26091797 302.78570313 -227.14453125 301.546875 C-226.96593994 298.39980658 -227.01442771 295.2883615 -227.16015625 292.140625 C-227 290 -227 290 -226.02734375 287.70898438 C-224.94922037 284.8661001 -224.61981818 282.53985423 -224.40234375 279.515625 C-224.28342773 277.99001953 -224.28342773 277.99001953 -224.16210938 276.43359375 C-224.08798828 275.38300781 -224.01386719 274.33242187 -223.9375 273.25 C-223.78392706 271.15074678 -223.62658604 269.0517646 -223.46484375 266.953125 C-223.399021 266.02661133 -223.33319824 265.10009766 -223.26538086 264.14550781 C-223 262 -223 262 -222 261 C-221.79501328 258.88054673 -221.65207412 256.75503699 -221.53515625 254.62890625 C-221.45716797 253.33275391 -221.37917969 252.03660156 -221.29882812 250.70117188 C-221.17908553 248.62964959 -221.06225982 246.55804961 -220.95043945 244.48608398 C-220.84096518 242.49156246 -220.71948339 240.49771137 -220.59765625 238.50390625 C-220.53070557 237.30580322 -220.46375488 236.1077002 -220.39477539 234.87329102 C-220 232 -220 232 -218 230 C-217.62904292 227.57753405 -217.62904292 227.57753405 -217.5859375 224.7734375 C-217.52792969 223.2265625 -217.52792969 223.2265625 -217.46875 221.6484375 C-217.4378125 220.56820313 -217.406875 219.48796875 -217.375 218.375 C-217.33632812 217.28703125 -217.29765625 216.1990625 -217.2578125 215.078125 C-217.16333753 212.38558835 -217.07777569 209.69306243 -217 207 C-216.34 207 -215.68 207 -215 207 C-215 205.35 -215 203.7 -215 202 C-215.33 202.66 -215.66 203.32 -216 204 C-218.28515625 204.4140625 -218.28515625 204.4140625 -221.0625 204.625 C-222.44115234 204.73714844 -222.44115234 204.73714844 -223.84765625 204.8515625 C-224.55792969 204.90054687 -225.26820313 204.94953125 -226 205 C-226.33 205.99 -226.66 206.98 -227 208 C-229.64 208.33 -232.28 208.66 -235 209 C-234.67 209.66 -234.34 210.32 -234 211 C-237.63 211.33 -241.26 211.66 -245 212 C-245 212.66 -245 213.32 -245 214 C-245.62648438 214.04898437 -246.25296875 214.09796875 -246.8984375 214.1484375 C-248.12433594 214.26058594 -248.12433594 214.26058594 -249.375 214.375 C-250.18710938 214.44460938 -250.99921875 214.51421875 -251.8359375 214.5859375 C-254.20334191 214.82892588 -254.20334191 214.82892588 -256 217 C-258.8203125 217.4140625 -258.8203125 217.4140625 -262.125 217.625 C-263.76855469 217.73714844 -263.76855469 217.73714844 -265.4453125 217.8515625 C-266.28835938 217.90054687 -267.13140625 217.94953125 -268 218 C-268 218.66 -268 219.32 -268 220 C-271.3 220.66 -274.6 221.32 -278 222 C-278 222.66 -278 223.32 -278 224 C-281.63 224.33 -285.26 224.66 -289 225 C-288.67 225.66 -288.34 226.32 -288 227 C-288.78246094 227.04898437 -289.56492187 227.09796875 -290.37109375 227.1484375 C-291.38300781 227.22320313 -292.39492187 227.29796875 -293.4375 227.375 C-294.95150391 227.47941406 -294.95150391 227.47941406 -296.49609375 227.5859375 C-297.32238281 227.72257812 -298.14867187 227.85921875 -299 228 C-299.33 228.66 -299.66 229.32 -300 230 C-302.28515625 230.4140625 -302.28515625 230.4140625 -305.0625 230.625 C-306.44115234 230.73714844 -306.44115234 230.73714844 -307.84765625 230.8515625 C-308.55792969 230.90054687 -309.26820313 230.94953125 -310 231 C-310 231.66 -310 232.32 -310 233 C-313.3 233.33 -316.6 233.66 -320 234 C-320.33 234.99 -320.66 235.98 -321 237 C-321.969375 237.12375 -322.93875 237.2475 -323.9375 237.375 C-324.948125 237.58125 -325.95875 237.7875 -327 238 C-327.33 238.66 -327.66 239.32 -328 240 C-330.43359375 240.34375 -330.43359375 240.34375 -333.4375 240.5 C-337.72329229 240.54675831 -337.72329229 240.54675831 -341 243 C-343.11158787 243.40979603 -345.24084734 243.73143247 -347.375 244 C-351.40027989 244.50883899 -354.43624579 245.09112086 -358 247 C-359.175625 247.165 -360.35125 247.33 -361.5625 247.5 C-365.11295563 247.76535587 -365.11295563 247.76535587 -368 250 C-370.26171875 250.4140625 -370.26171875 250.4140625 -372.6875 250.625 C-373.89986328 250.73714844 -373.89986328 250.73714844 -375.13671875 250.8515625 C-375.75160156 250.90054687 -376.36648438 250.94953125 -377 251 C-377 251.66 -377 252.32 -377 253 C-379.31 253.33 -381.62 253.66 -384 254 C-384 254.66 -384 255.32 -384 256 C-384.71027344 256.04898437 -385.42054687 256.09796875 -386.15234375 256.1484375 C-387.53099609 256.26058594 -387.53099609 256.26058594 -388.9375 256.375 C-389.85402344 256.44460938 -390.77054688 256.51421875 -391.71484375 256.5859375 C-392.46894531 256.72257812 -393.22304687 256.85921875 -394 257 C-394.33 257.66 -394.66 258.32 -395 259 C-397.50390625 259.4140625 -397.50390625 259.4140625 -400.5625 259.625 C-402.08037109 259.73714844 -402.08037109 259.73714844 -403.62890625 259.8515625 C-404.41136719 259.90054687 -405.19382812 259.94953125 -406 260 C-406 260.66 -406 261.32 -406 262 C-408.33333333 262.33333333 -410.66666667 262.66666667 -413 263 C-414.155 263.226875 -415.31 263.45375 -416.5 263.6875 C-420.64551671 264.05763542 -423.10440022 263.35153462 -427 262 C-427 261.34 -427 260.68 -427 260 C-427.99 259.67 -428.98 259.34 -430 259 C-430.33 258.01 -430.66 257.02 -431 256 C-431.66 255.67 -432.32 255.34 -433 255 C-433.05793591 250.56255461 -433.09357467 246.12520611 -433.125 241.6875 C-433.14175781 240.42486328 -433.15851563 239.16222656 -433.17578125 237.86132812 C-433.18222656 236.65283203 -433.18867187 235.44433594 -433.1953125 234.19921875 C-433.20578613 233.08377686 -433.21625977 231.96833496 -433.22705078 230.8190918 C-433 228 -433 228 -431 225 C-430.70228863 222.47098794 -430.53009685 220.03885738 -430.4375 217.5 C-430.40068115 216.70916016 -430.3638623 215.91832031 -430.32592773 215.10351562 C-430.06662968 209.09176456 -429.92624007 203.07795583 -429.7890625 197.0625 C-429.75081073 195.47460749 -429.7124801 193.88671687 -429.67407227 192.29882812 C-429.59736718 189.11534438 -429.53497058 185.93197658 -429.48022461 182.74804688 C-429.44686182 181.25910534 -429.41310595 179.77017255 -429.37890625 178.28125 C-429.37053741 177.59135986 -429.36216858 176.90146973 -429.35354614 176.19067383 C-429.25955624 172.58717922 -429.0576623 171.08649345 -427 168 C-426.63566627 165.87662229 -426.63566627 165.87662229 -426.5859375 163.55078125 C-426.54726562 162.70322266 -426.50859375 161.85566406 -426.46875 160.98242188 C-426.4378125 160.10134766 -426.406875 159.22027344 -426.375 158.3125 C-426.33632812 157.41982422 -426.29765625 156.52714844 -426.2578125 155.60742188 C-426.16359782 153.4051538 -426.07798412 151.20289278 -426 149 C-425.34 149 -424.68 149 -424 149 C-423.01 146.03 -423.01 146.03 -422 143 C-421.34 143 -420.68 143 -420 143 C-420 142.01 -420 141.02 -420 140 C-419.01 140 -418.02 140 -417 140 C-417 139.01 -417 138.02 -417 137 C-416.01 136.67 -415.02 136.34 -414 136 C-413.484375 135.484375 -412.96875 134.96875 -412.4375 134.4375 C-411.963125 133.963125 -411.48875 133.48875 -411 133 C-410.34 133 -409.68 133 -409 133 C-409 132.01 -409 131.02 -409 130 C-407.35 129.67 -405.7 129.34 -404 129 C-404 128.34 -404 127.68 -404 127 C-399.545 126.01 -399.545 126.01 -395 125 C-395 124.67 -395 124.34 -395 124 C-390.05 123.505 -390.05 123.505 -385 123 C-385 122.34 -385 121.68 -385 121 C-384.35933594 120.87882813 -383.71867187 120.75765625 -383.05859375 120.6328125 C-377.951954 119.64344861 -372.99424095 118.4688944 -368 117 C-366.33753959 116.64628502 -364.67225729 116.30404678 -363 116 C-363.33 115.34 -363.66 114.68 -364 114 C-360.37 113.67 -356.74 113.34 -353 113 C-353 112.34 -353 111.68 -353 111 C-349.37 110.67 -345.74 110.34 -342 110 C-342 109.34 -342 108.68 -342 108 C-337.545 107.01 -337.545 107.01 -333 106 C-333 105.67 -333 105.34 -333 105 C-331.82630859 104.81824219 -331.82630859 104.81824219 -330.62890625 104.6328125 C-329.61699219 104.46523438 -328.60507813 104.29765625 -327.5625 104.125 C-326.55316406 103.96257812 -325.54382812 103.80015625 -324.50390625 103.6328125 C-323.26447266 103.31957031 -323.26447266 103.31957031 -322 103 C-321.67 102.34 -321.34 101.68 -321 101 C-318.35139573 100.40644386 -315.70802678 100.25790731 -313 100 C-313 99.34 -313 98.68 -313 98 C-312.28972656 97.95101562 -311.57945312 97.90203125 -310.84765625 97.8515625 C-309.46900391 97.73941406 -309.46900391 97.73941406 -308.0625 97.625 C-307.14597656 97.55539062 -306.22945312 97.48578125 -305.28515625 97.4140625 C-304.53105469 97.27742187 -303.77695313 97.14078125 -303 97 C-302.67 96.34 -302.34 95.68 -302 95 C-299.67711188 94.60689586 -297.38154824 94.49250305 -295.03125 94.34375 C-294.3609375 94.2303125 -293.690625 94.116875 -293 94 C-292.67 93.34 -292.34 92.68 -292 92 C-289.71484375 91.5859375 -289.71484375 91.5859375 -286.9375 91.375 C-285.55884766 91.26285156 -285.55884766 91.26285156 -284.15234375 91.1484375 C-283.44207031 91.09945312 -282.73179687 91.05046875 -282 91 C-282 90.34 -282 89.68 -282 89 C-276.555 88.01 -276.555 88.01 -271 87 C-271.33 86.34 -271.66 85.68 -272 85 C-268.37 84.67 -264.74 84.34 -261 84 C-261 83.34 -261 82.68 -261 82 C-260.28972656 81.95101562 -259.57945312 81.90203125 -258.84765625 81.8515625 C-257.46900391 81.73941406 -257.46900391 81.73941406 -256.0625 81.625 C-255.14597656 81.55539062 -254.22945312 81.48578125 -253.28515625 81.4140625 C-252.53105469 81.27742187 -251.77695313 81.14078125 -251 81 C-250.67 80.34 -250.34 79.68 -250 79 C-247.71484375 78.5859375 -247.71484375 78.5859375 -244.9375 78.375 C-243.55884766 78.26285156 -243.55884766 78.26285156 -242.15234375 78.1484375 C-241.44207031 78.09945312 -240.73179687 78.05046875 -240 78 C-240 77.34 -240 76.68 -240 76 C-236.7 75.67 -233.4 75.34 -230 75 C-229.67 74.01 -229.34 73.02 -229 72 C-224.545 71.505 -224.545 71.505 -220 71 C-220 70.34 -220 69.68 -220 69 C-219.36191406 68.95101562 -218.72382812 68.90203125 -218.06640625 68.8515625 C-216.82697266 68.73941406 -216.82697266 68.73941406 -215.5625 68.625 C-214.73878906 68.55539062 -213.91507813 68.48578125 -213.06640625 68.4140625 C-212.04353516 68.20910156 -212.04353516 68.20910156 -211 68 C-210.67 67.34 -210.34 66.68 -210 66 C-207.49609375 65.5859375 -207.49609375 65.5859375 -204.4375 65.375 C-203.42558594 65.30023437 -202.41367188 65.22546875 -201.37109375 65.1484375 C-200.58863281 65.09945312 -199.80617188 65.05046875 -199 65 C-199 64.34 -199 63.68 -199 63 C-194.05 62.505 -194.05 62.505 -189 62 C-189 61.34 -189 60.68 -189 60 C-184.05 59.505 -184.05 59.505 -179 59 C-179 58.01 -179 57.02 -179 56 C-174.05 55.505 -174.05 55.505 -169 55 C-169 54.34 -169 53.68 -169 53 C-168.30132813 52.95101562 -167.60265625 52.90203125 -166.8828125 52.8515625 C-165.97273438 52.77679687 -165.06265625 52.70203125 -164.125 52.625 C-162.76761719 52.52058594 -162.76761719 52.52058594 -161.3828125 52.4140625 C-158.82058097 52.20431868 -158.82058097 52.20431868 -157 50 C-154.3984375 49.5859375 -154.3984375 49.5859375 -151.375 49.375 C-150.37210938 49.30023437 -149.36921875 49.22546875 -148.3359375 49.1484375 C-147.56507813 49.09945312 -146.79421875 49.05046875 -146 49 C-146 48.34 -146 47.68 -146 47 C-140.06 46.505 -140.06 46.505 -134 46 C-134 45.34 -134 44.68 -134 44 C-131.03 43.34 -128.06 42.68 -125 42 C-125.33 41.34 -125.66 40.68 -126 40 C-122.37 39.67 -118.74 39.34 -115 39 C-115 38.34 -115 37.68 -115 37 C-114.36191406 36.95101562 -113.72382812 36.90203125 -113.06640625 36.8515625 C-112.24011719 36.77679687 -111.41382813 36.70203125 -110.5625 36.625 C-109.73878906 36.55539062 -108.91507813 36.48578125 -108.06640625 36.4140625 C-107.38449219 36.27742187 -106.70257812 36.14078125 -106 36 C-105.67 35.34 -105.34 34.68 -105 34 C-102.49609375 33.5859375 -102.49609375 33.5859375 -99.4375 33.375 C-98.42558594 33.30023437 -97.41367188 33.22546875 -96.37109375 33.1484375 C-95.58863281 33.09945312 -94.80617188 33.05046875 -94 33 C-94 32.34 -94 31.68 -94 31 C-91.03 30.67 -88.06 30.34 -85 30 C-85 29.01 -85 28.02 -85 27 C-81.7 26.67 -78.4 26.34 -75 26 C-75.33 25.34 -75.66 24.68 -76 24 C-74.93458984 23.92652344 -74.93458984 23.92652344 -73.84765625 23.8515625 C-72.92855469 23.77679687 -72.00945312 23.70203125 -71.0625 23.625 C-70.14597656 23.55539062 -69.22945312 23.48578125 -68.28515625 23.4140625 C-67.53105469 23.27742187 -66.77695313 23.14078125 -66 23 C-65.67 22.34 -65.34 21.68 -65 21 C-62.49609375 20.5859375 -62.49609375 20.5859375 -59.4375 20.375 C-57.91962891 20.26285156 -57.91962891 20.26285156 -56.37109375 20.1484375 C-55.58863281 20.09945312 -54.80617188 20.05046875 -54 20 C-54 19.34 -54 18.68 -54 18 C-50.7 17.67 -47.4 17.34 -44 17 C-44 16.34 -44 15.68 -44 15 C-38.555 14.01 -38.555 14.01 -33 13 C-33.33 12.34 -33.66 11.68 -34 11 C-30.04 10.67 -26.08 10.34 -22 10 C-22.33 9.34 -22.66 8.68 -23 8 C-22.21753906 7.95101562 -21.43507813 7.90203125 -20.62890625 7.8515625 C-19.11103516 7.73941406 -19.11103516 7.73941406 -17.5625 7.625 C-16.55316406 7.55539062 -15.54382812 7.48578125 -14.50390625 7.4140625 C-13.67761719 7.27742187 -12.85132813 7.14078125 -12 7 C-11.67 6.34 -11.34 5.68 -11 5 C-8.71484375 4.5859375 -8.71484375 4.5859375 -5.9375 4.375 C-5.01839844 4.30023437 -4.09929687 4.22546875 -3.15234375 4.1484375 C-2.08693359 4.07496094 -2.08693359 4.07496094 -1 4 C-0.67 2.68 -0.34 1.36 0 0 Z M-295 612 C-295.33 614.31 -295.66 616.62 -296 619 C-293.69328085 616.28450846 -293.69328085 616.28450846 -294.375 613.8125 C-294.58125 613.214375 -294.7875 612.61625 -295 612 Z " fill="#000000" transform="translate(1932,821)"/>
<path d="M0 0 C0 154.77 0 309.54 0 469 C-20.79 475.27 -41.58 481.54 -63 488 C-78.37501531 492.68110826 -78.37501531 492.68110826 -93.7434082 497.38354492 C-96 498 -96 498 -98 498 C-104.08464966 478.55075997 -109.56304149 458.94195354 -115.03509521 439.31396484 C-125.57589622 401.50998904 -136.29260871 363.75764296 -147 326 C-147.33 387.71 -147.66 449.42 -148 513 C-152.79998687 514.79999508 -157.43940688 516.50994963 -162.31396484 518.00537109 C-163.49654877 518.36940033 -164.67913269 518.73342957 -165.89755249 519.10848999 C-167.78517807 519.68513901 -167.78517807 519.68513901 -169.7109375 520.2734375 C-171.04648363 520.68300621 -172.38198278 521.09272814 -173.71743774 521.50259399 C-176.51246645 522.35979539 -179.30803321 523.21521223 -182.10400391 524.06933594 C-185.63194128 525.14720484 -189.15854673 526.22935598 -192.68474388 527.31290245 C-195.44543445 528.1606898 -198.20683501 529.00614613 -200.96843338 529.85097122 C-202.88366256 530.43728129 -204.79833442 531.02541096 -206.71298218 531.61361694 C-216.43834797 534.5801048 -226.19359634 537.27599898 -236 540 C-236 385.23 -236 230.46 -236 71 C-148.25 44 -148.25 44 -145 44 C-139.21883527 63.51092339 -133.75497708 83.106575 -128.31188965 102.71374512 C-127.19976544 106.71893387 -126.08616232 110.72371082 -124.97265625 114.72851562 C-124.06644531 117.98791016 -123.16023438 121.24730469 -122.2265625 124.60546875 C-114.49662559 152.40705489 -106.74668385 180.20307561 -99 208 C-98.505 119.395 -98.505 119.395 -98 29 C-2.54166667 0 -2.54166667 0 0 0 Z " fill="#000000" transform="translate(2691,704)"/>
<path d="M0 0 C1.3602832 -0.0299707 1.3602832 -0.0299707 2.74804688 -0.06054688 C11.85749519 -0.05403548 19.87594267 2.89229835 26.99609375 8.6171875 C37.17658494 18.81957222 38.96660451 33.2464151 38.95294189 46.96818542 C38.95591302 47.9090002 38.95888414 48.84981498 38.9619453 49.8191393 C38.97059494 52.9617107 38.97213737 56.10424383 38.97363281 59.24682617 C38.97826361 61.50422242 38.98328863 63.76161789 38.98867798 66.01901245 C39.00177836 72.14524105 39.00824229 78.2714587 39.01268864 84.39769912 C39.01562306 88.22794157 39.01972856 92.05818106 39.02419281 95.88842201 C39.03629659 106.50783125 39.04668043 117.1272379 39.0500679 127.74665356 C39.05039725 128.76478397 39.05039725 128.76478397 39.05073325 129.80348267 C39.05095153 130.48379344 39.05116981 131.16410422 39.0513947 131.86503047 C39.05183816 133.24343503 39.05228472 134.62183958 39.05273438 136.00024414 C39.05306652 137.02583281 39.05306652 137.02583281 39.05340537 138.07214043 C39.05735108 149.14401216 39.0748007 160.21581798 39.0980939 171.28766426 C39.12185393 182.67395374 39.13401428 194.06019909 39.13543582 205.44651777 C39.13648234 211.83186321 39.14235784 218.21711562 39.16025543 224.60243797 C39.17677136 230.61151733 39.17887444 236.62043404 39.17011642 242.62952805 C39.16934795 244.82886377 39.17366359 247.02820837 39.18357468 249.2275219 C39.26982217 269.56699585 36.63014116 287.0455681 22.14697266 302.37304688 C15.15832439 309.35931886 6.88275418 313.75448843 -2.1875 317.4375 C-0.20290258 324.36169456 2.08519124 331.11043766 4.62890625 337.84765625 C4.99766876 338.83288773 5.36643127 339.8181192 5.74636841 340.83320618 C6.53995336 342.95276901 7.33493642 345.0718088 8.13119507 347.19036865 C10.26878248 352.87825919 12.39586723 358.57007526 14.5234375 364.26171875 C14.9610289 365.43172424 15.3986203 366.60172974 15.84947205 367.80718994 C21.18932736 382.09870312 26.43390486 396.42513338 31.67211914 410.75415039 C32.3684722 412.65647871 33.06500177 414.55874243 33.76171875 416.4609375 C34.09424149 417.37010422 34.42676422 418.27927094 34.7693634 419.21598816 C36.51148492 423.96135381 38.28673161 428.69159106 40.10791016 433.40722656 C40.48051468 434.37334869 40.8531192 435.33947083 41.23701477 436.33486938 C41.95043551 438.17813393 42.668307 440.01968396 43.39128113 441.85922241 C43.70922134 442.67992218 44.02716156 443.50062195 44.35473633 444.34619141 C44.63698563 445.06626373 44.91923492 445.78633606 45.21003723 446.52822876 C45.8125 448.4375 45.8125 448.4375 45.8125 451.4375 C26.83471871 457.35049434 7.84257243 463.21511162 -11.17504311 468.99877357 C-14.87787656 470.1248998 -18.57996266 471.25336914 -22.28051758 472.38696289 C-25.94993099 473.5109752 -29.62094683 474.62959425 -33.29319572 475.74430656 C-34.67206298 476.16384164 -36.05035757 476.58526401 -37.42804146 477.0086689 C-39.32877989 477.59242469 -41.23184521 478.16858784 -43.13500977 478.74438477 C-44.74920555 479.23661278 -44.74920555 479.23661278 -46.39601135 479.73878479 C-49.1875 480.4375 -49.1875 480.4375 -53.1875 480.4375 C-61.25168848 456.88816682 -69.27168094 433.32391713 -77.26010513 409.74878693 C-77.92484346 407.78734562 -78.58986589 405.82600087 -79.25497437 403.86468506 C-85.62608363 385.07547217 -91.92936363 366.26458984 -98.1875 347.4375 C-102.1475 348.0975 -106.1075 348.7575 -110.1875 349.4375 C-110.1875 398.6075 -110.1875 447.7775 -110.1875 498.4375 C-115.52339681 500.4384613 -120.78037049 502.30740516 -126.22070312 503.94946289 C-126.97955307 504.18077408 -127.73840302 504.41208527 -128.52024841 504.65040588 C-131.00230766 505.40623077 -133.48548543 506.15830179 -135.96875 506.91015625 C-137.70940254 507.43899223 -139.45000226 507.9680021 -141.19055176 508.49717712 C-144.82786865 509.60239554 -148.46572855 510.70580232 -152.10400391 511.80786133 C-156.75162423 513.21577171 -161.39799584 514.62775191 -166.04398346 516.04103947 C-169.63473959 517.13291948 -173.22608354 518.22285529 -176.81761169 519.31219292 C-178.53047617 519.83192263 -180.24317623 520.35219454 -181.95570374 520.87303352 C-184.35465288 521.60226887 -186.75436698 522.32893147 -189.15429688 523.05493164 C-189.85167465 523.26744568 -190.54905243 523.47995972 -191.26756287 523.69891357 C-195.88856356 525.09291796 -200.49264085 526.26378521 -205.1875 527.4375 C-205.1875 372.6675 -205.1875 217.8975 -205.1875 58.4375 C-144.93601545 39.89858168 -144.93601545 39.89858168 -117.54851151 31.63139343 C-113.54185137 30.42183014 -109.53547181 29.21133802 -105.52905273 28.00097656 C-100.67339086 26.53407577 -95.81769797 25.06727835 -90.96180725 23.60113525 C-81.60815773 20.77649249 -72.25767804 17.94164902 -62.91017342 15.09674072 C-58.65250853 13.80146775 -54.39392309 12.50922327 -50.13546753 11.21655273 C-47.91343111 10.54113859 -45.69183743 9.86426583 -43.47073364 9.18579102 C-13.05559145 -0.10339201 -13.05559145 -0.10339201 0 0 Z M-67.96191406 99.70678711 C-68.87926331 99.98384995 -69.79661255 100.26091278 -70.74176025 100.54637146 C-71.71901062 100.84946732 -72.69626099 101.15256317 -73.703125 101.46484375 C-74.71469666 101.77321671 -75.72626831 102.08158966 -76.76849365 102.39930725 C-78.90103205 103.05092078 -81.03254428 103.70590087 -83.16308594 104.36401367 C-86.43710106 105.37487683 -89.71430601 106.37480083 -92.9921875 107.37304688 C-95.06269558 108.00717425 -97.13301487 108.64191845 -99.203125 109.27734375 C-100.18847229 109.57841537 -101.17381958 109.879487 -102.18902588 110.18968201 C-103.09376648 110.469897 -103.99850708 110.750112 -104.93066406 111.03881836 C-105.73054749 111.28530624 -106.53043091 111.53179413 -107.35455322 111.78575134 C-109.18031659 112.28720199 -109.18031659 112.28720199 -110.1875 113.4375 C-110.28430041 115.48777739 -110.30936943 117.54144879 -110.30775452 119.5940094 C-110.30860894 120.24414865 -110.30946337 120.8942879 -110.31034368 121.56412834 C-110.31200026 123.7583558 -110.30647425 125.95250802 -110.30102539 128.14672852 C-110.30074353 129.71335854 -110.30090123 131.2799887 -110.3014679 132.84661865 C-110.30175592 137.11296377 -110.29585843 141.37928102 -110.28889394 145.64561963 C-110.28266118 150.09927051 -110.28205666 154.55292197 -110.28086853 159.00657654 C-110.27775498 167.44617443 -110.26954128 175.88575944 -110.25951904 184.32535166 C-110.24835863 193.93099444 -110.24284764 203.53663782 -110.23782361 213.14228547 C-110.22735868 232.90736418 -110.20975879 252.67243128 -110.1875 272.4375 C-108.61702708 272.13218881 -107.04703776 271.82438956 -105.47724915 271.51557922 C-104.60290883 271.34444768 -103.72856852 271.17331614 -102.82773304 270.99699879 C-98.77305387 270.13776097 -94.82235794 268.98679011 -90.85546875 267.79296875 C-90.01583084 267.54130447 -89.17619293 267.2896402 -88.31111145 267.03034973 C-86.5549678 266.50108318 -84.7996563 265.96904803 -83.04516602 265.43432617 C-80.36831008 264.62297229 -77.68545146 263.83398447 -75.00195312 263.04492188 C-73.28604336 262.52480458 -71.5705334 262.00336605 -69.85546875 261.48046875 C-69.05956833 261.25006393 -68.26366791 261.01965912 -67.44364929 260.78227234 C-62.53661549 259.25133222 -59.51578113 257.55070378 -56.1875 253.4375 C-55.11613842 250.22341525 -55.05641253 247.90952169 -55.04705811 244.5296936 C-55.04134796 243.29591476 -55.03563782 242.06213593 -55.02975464 240.79096985 C-55.0285093 239.4213563 -55.0273842 238.05174264 -55.02636719 236.68212891 C-55.02173852 235.24154025 -55.01671379 233.80095282 -55.01132202 232.36036682 C-54.99820163 228.44504483 -54.9917539 224.52973998 -54.98731136 220.61439943 C-54.98438036 218.16853257 -54.98027552 215.72267039 -54.97580719 213.27680588 C-54.96213387 205.62496958 -54.95246612 197.973144 -54.9486053 190.32129633 C-54.9441233 181.4868299 -54.92656821 172.65251808 -54.8976047 163.81809866 C-54.87599537 156.98998784 -54.86590144 150.16192054 -54.86456418 143.33377588 C-54.86351571 139.25520852 -54.85759895 135.17678654 -54.83974457 131.09825516 C-54.82327652 127.26181621 -54.8211021 123.42563213 -54.82988358 119.58917046 C-54.83065461 118.18188609 -54.82630248 116.77458809 -54.81642532 115.36733818 C-54.80372309 113.4446916 -54.81136808 111.52194281 -54.82000732 109.59927368 C-54.81854076 108.52375055 -54.8170742 107.44822742 -54.8155632 106.34011269 C-55.24286036 103.00546506 -56.16126276 101.10290869 -58.1875 98.4375 C-61.68157557 97.86444501 -64.61423294 98.68258779 -67.96191406 99.70678711 Z " fill="#000000" transform="translate(1403.1875,1097.5625)"/>
<path d="M0 0 C10.33849094 8.61540912 13.36330618 19.14413249 15.1484375 32.08203125 C15.5269685 37.16146329 15.55596866 42.22074296 15.52938843 47.31109619 C15.53285516 48.7830581 15.53762648 50.2550174 15.54357016 51.72697139 C15.5559711 55.72683372 15.54996013 59.7264784 15.54061151 63.72634101 C15.53377585 68.05778381 15.54432461 72.38919124 15.55255127 76.72062683 C15.56584431 85.18929715 15.5630303 93.6578874 15.55431335 102.12656078 C15.54751791 109.0158253 15.5466281 115.9050675 15.5498848 122.79433441 C15.5503445 123.77762029 15.55080419 124.76090617 15.55127782 125.77398859 C15.55223708 127.77202569 15.55320972 129.77006279 15.5541956 131.76809987 C15.56273699 150.47584088 15.55293596 169.18353769 15.5367945 187.89127144 C15.52340084 203.90947004 15.525714 219.92760337 15.53955078 235.94580078 C15.55564322 254.58375806 15.56190434 273.22167662 15.55271399 291.85963988 C15.55175843 293.85124826 15.55081532 295.84285664 15.5498848 297.83446503 C15.54942197 298.81415405 15.54895914 299.79384307 15.54848229 300.80321963 C15.54590274 307.6743875 15.55024113 314.54553061 15.55732346 321.41669464 C15.56577985 329.80476713 15.56337235 338.19275552 15.54748122 346.5808185 C15.53965249 350.85258566 15.53641335 355.12421313 15.54642868 359.39597893 C15.61478782 391.30800761 14.49288003 420.07035368 -8.9765625 444.296875 C-21.09621778 456.31471866 -36.95301927 463.30408073 -52.984375 468.3828125 C-54.4123704 468.84625843 -55.84010806 469.31049911 -57.26760864 469.77546692 C-73.23160111 474.94532907 -89.30538583 479.76987303 -105.38372803 484.56939697 C-109.3038751 485.74089644 -113.22214206 486.91865195 -117.140625 488.09570312 C-123.93665068 490.1365499 -130.73587332 492.1664771 -137.53647995 494.19199944 C-142.25060846 495.59823085 -146.95717594 497.02738885 -151.66113281 498.46728516 C-153.47860519 499.01875969 -153.47860519 499.01875969 -155.33279419 499.58137512 C-157.54007772 500.25134229 -159.74545057 500.92766065 -161.94821167 501.61235046 C-177.75914655 506.3831562 -195.91743106 509.37758353 -211.35546875 501.86328125 C-222.37249538 495.15240208 -226.79475856 485.19556421 -229.8515625 473.08203125 C-231.09370383 465.57969228 -230.99730125 458.10291626 -230.99200439 450.51597595 C-230.99459104 449.03070819 -230.99760503 447.54544112 -231.0010078 446.060175 C-231.00904591 441.99123734 -231.01086558 437.92231735 -231.01160526 433.85337269 C-231.01346139 429.45986088 -231.02101153 425.06635811 -231.02774048 420.67285156 C-231.04130167 411.07138593 -231.04734507 401.46992449 -231.05175114 391.86845088 C-231.05451732 385.86876192 -231.05875536 379.86907455 -231.06325531 373.86938667 C-231.07544511 357.2450912 -231.08574498 340.620797 -231.0891304 323.99649715 C-231.08934997 322.93324389 -231.08956953 321.86999063 -231.08979575 320.77451757 C-231.09001403 319.70877804 -231.09023231 318.6430385 -231.0904572 317.54500383 C-231.09090066 315.38555268 -231.09134722 313.22610154 -231.09179688 311.06665039 C-231.0920183 309.99549713 -231.09223973 308.92434386 -231.09246787 307.82073141 C-231.09641423 290.47196379 -231.11386459 273.12323822 -231.1371564 255.77448683 C-231.16089836 237.94595382 -231.17333355 220.11744188 -231.17449832 202.28889281 C-231.17541348 192.28563461 -231.18112574 182.28243121 -231.19931793 172.27918816 C-231.21475735 163.75982254 -231.21981678 155.24052866 -231.21157983 146.7211517 C-231.2076869 142.37903741 -231.20853618 138.0370674 -231.22263718 133.69497108 C-231.2354579 129.710461 -231.23410775 125.7262024 -231.22204646 121.74169225 C-231.2201035 120.30963924 -231.22310211 118.8775679 -231.23189083 117.44554054 C-231.36236551 94.72522002 -225.13015738 74.30875463 -209.34765625 57.48828125 C-197.90841382 46.46077994 -184.50480198 39.39790205 -169.5546875 34.5078125 C-168.5289563 34.16937317 -167.5032251 33.83093384 -166.44641113 33.48223877 C-151.95915877 28.75148522 -137.34686714 24.41742444 -122.74729156 20.04917908 C-118.69011154 18.83468539 -114.63392479 17.61688279 -110.57763672 16.39941406 C-105.75465803 14.95202735 -100.93156462 13.50502888 -96.10787964 12.05999756 C-87.25897096 9.40866281 -78.41519495 6.74137485 -69.578125 4.05078125 C-66.86249465 3.22632619 -64.14672999 2.40231541 -61.4309082 1.57849121 C-59.8217248 1.08907728 -58.21313961 0.59769115 -56.60522461 0.10412598 C-38.72112746 -5.38336788 -16.930884 -11.38775897 0 0 Z M-97.6953125 95.6015625 C-98.54202515 95.86080002 -99.38873779 96.12003754 -100.2611084 96.38713074 C-102.04736706 96.93604043 -103.83254664 97.48847243 -105.61669922 98.04418945 C-108.33907465 98.89064844 -111.06562926 99.72242851 -113.79296875 100.55273438 C-115.53152072 101.08896682 -117.26981113 101.62604817 -119.0078125 102.1640625 C-119.81939819 102.411064 -120.63098389 102.65806549 -121.46716309 102.91255188 C-128.67293322 104.94984758 -128.67293322 104.94984758 -133.96534896 109.86377662 C-134.99696645 112.44598754 -135.1022277 114.36359788 -135.10324478 117.14173222 C-135.10846028 118.16848122 -135.11367577 119.19523022 -135.11904931 120.25309283 C-135.11458787 121.37944295 -135.11012642 122.50579308 -135.10552979 123.66627502 C-135.10864977 124.86405687 -135.11176975 126.06183871 -135.11498427 127.29591697 C-135.12158946 130.62182849 -135.11920118 133.94751468 -135.11301184 137.27341259 C-135.10849372 140.85967153 -135.11546789 144.44591053 -135.12097168 148.03216553 C-135.12987391 155.05783341 -135.12794006 162.08345861 -135.1221464 169.10912818 C-135.11763354 174.81743991 -135.11701537 180.52573966 -135.11919403 186.23405266 C-135.1195005 187.04582537 -135.11980696 187.85759809 -135.12012272 188.69396998 C-135.12076215 190.34294765 -135.12141058 191.99192532 -135.1220679 193.64090299 C-135.12777353 209.10999912 -135.12120946 224.57907157 -135.11046717 240.04816382 C-135.10152976 253.32956574 -135.10308481 266.6109327 -135.11230469 279.89233398 C-135.1230003 295.30682559 -135.12722596 310.72129644 -135.12108016 326.13579124 C-135.12044304 327.77846936 -135.1198143 329.42114748 -135.11919403 331.06382561 C-135.11888548 331.87210783 -135.11857693 332.68039005 -135.11825903 333.51316567 C-135.11653008 339.21701442 -135.11945144 344.92085002 -135.12415314 350.62469673 C-135.12975403 357.57225754 -135.12826219 364.51977313 -135.11759165 371.46732873 C-135.11232448 375.01399519 -135.1102959 378.56058618 -135.11688995 382.10725212 C-135.12392015 385.94646808 -135.1155432 389.78555964 -135.10552979 393.62477112 C-135.10999123 394.75335197 -135.11445267 395.88193281 -135.11904931 397.04471308 C-135.11383382 398.06885433 -135.10861832 399.09299559 -135.10324478 400.14817142 C-135.10292008 401.03492843 -135.10259537 401.92168543 -135.10226083 402.83531386 C-134.99392048 405.36575267 -134.99392048 405.36575267 -132.8515625 408.08203125 C-127.12545268 407.5010457 -121.90194119 406.40296252 -116.40625 404.71875 C-115.632742 404.48549515 -114.85923401 404.2522403 -114.06228638 404.01191711 C-112.43943125 403.52016487 -110.81760187 403.02501568 -109.19677734 402.52661133 C-106.72975391 401.77050937 -104.25785609 401.03221727 -101.78515625 400.29492188 C-100.20019421 399.81226921 -98.61554734 399.3285801 -97.03125 398.84375 C-96.29985809 398.62692062 -95.56846619 398.41009125 -94.81491089 398.18669128 C-90.2943734 396.77613334 -86.61868168 395.05715418 -82.8515625 392.08203125 C-81.86715599 389.12881172 -81.72537189 387.22365625 -81.72292805 384.14537811 C-81.71809138 382.60824118 -81.71809138 382.60824118 -81.713157 381.04005098 C-81.7154799 379.34615653 -81.7154799 379.34615653 -81.71784973 377.61804199 C-81.7144514 375.82265086 -81.7144514 375.82265086 -81.71098441 373.99098921 C-81.70573739 370.66288013 -81.70500153 367.33482495 -81.70617878 364.00671554 C-81.70638246 360.41976135 -81.70086729 356.83281529 -81.69612122 353.24586487 C-81.68780732 346.21673014 -81.68506606 339.18760379 -81.68450884 332.15846455 C-81.6840341 326.44727085 -81.68198148 320.73607991 -81.67880821 315.02488708 C-81.67000022 298.84391129 -81.66538915 282.66294214 -81.66613869 266.48196393 C-81.66619862 265.17290595 -81.66619862 265.17290595 -81.66625977 263.83740234 C-81.66632109 262.52675231 -81.66632109 262.52675231 -81.66638365 261.18962449 C-81.66679033 247.02043777 -81.65721553 232.8512776 -81.6431214 218.68209857 C-81.62877438 204.14437768 -81.62185027 189.60666975 -81.62271518 175.06894159 C-81.62304769 166.90259334 -81.62027683 158.73627292 -81.60953712 150.56993103 C-81.60045418 143.61869064 -81.59823868 136.66749071 -81.60504655 129.71624696 C-81.60832275 126.16755918 -81.60832902 122.61894913 -81.5996933 119.07026863 C-81.59044094 115.2288161 -81.59657544 111.38747848 -81.60432434 107.54602051 C-81.59918078 106.41675754 -81.59403721 105.28749457 -81.58873779 104.12401152 C-81.59333658 103.09925356 -81.59793538 102.07449561 -81.60267353 101.01868439 C-81.60245616 100.13138531 -81.60223879 99.24408624 -81.60201484 98.32989931 C-81.70877489 95.79841341 -81.70877489 95.79841341 -83.8515625 93.08203125 C-88.591041 92.29304879 -93.21378104 94.20410078 -97.6953125 95.6015625 Z " fill="#000000" transform="translate(2401.8515625,807.91796875)"/>
<path d="M0 0 C0 154.77 0 309.54 0 469 C-94.63157895 498 -94.63157895 498 -97 498 C-97.33 436.62 -97.66 375.24 -98 312 C-120.77 318.93 -120.77 318.93 -144 326 C-145.32 326 -146.64 326 -148 326 C-148 388.04 -148 450.08 -148 514 C-227 538 -227 538 -245 543 C-245 388.23 -245 233.46 -245 74 C-150.75 45 -150.75 45 -148 45 C-147.67 110.67 -147.34 176.34 -147 244 C-130.83 239.05 -114.66 234.1 -98 229 C-97.505 130 -97.505 130 -97 29 C-1.71428571 0 -1.71428571 0 0 0 Z " fill="#000000" transform="translate(2133,873)"/>
<path d="M0 0 C0.09161958 52.32437023 0.16207125 104.64873232 0.20426132 156.97316703 C0.20926395 163.15504443 0.21444126 169.33692167 0.21972656 175.51879883 C0.2207758 176.74946345 0.22182505 177.98012808 0.22290608 179.24808557 C0.24029609 199.15676031 0.27182604 219.0653887 0.30861118 238.97403597 C0.34605968 259.41264946 0.36824412 279.85123872 0.37635398 300.2898851 C0.38183363 312.89459291 0.39912068 325.49916968 0.43166587 338.10383714 C0.45286201 346.75543934 0.45918851 355.4069741 0.45400551 364.05860036 C0.45145167 369.04497731 0.45527767 374.03112578 0.4768219 379.01746178 C0.49644706 383.59333408 0.49716773 388.16882669 0.48359558 392.74471737 C0.48192095 394.38970037 0.48685906 396.03470817 0.49953273 397.67964321 C0.6877876 423.64886395 -7.92803346 446.98507165 -26.1875 465.75 C-40.08387859 479.45277895 -57.2766545 486.16599251 -75.703125 491.65234375 C-77.09488594 492.07334125 -78.48643094 492.49505316 -79.8777771 492.91741943 C-83.57083487 494.03631287 -87.26678402 495.14533163 -90.96350861 496.25204086 C-94.81498707 497.40666192 -98.6639335 498.56966575 -102.51318359 499.73168945 C-108.71861982 501.603909 -114.92570318 503.47057161 -121.13378906 505.33398438 C-127.98343331 507.3904454 -134.82821576 509.4623903 -141.67016602 511.54429626 C-146.26023578 512.94086752 -150.8518033 514.33246441 -155.44372559 515.72293091 C-157.54297089 516.3594265 -159.64169763 516.99763521 -161.73986816 517.63766479 C-200.46834958 529.43896174 -200.46834958 529.43896174 -218.69140625 520.7109375 C-228.27676309 515.36827959 -233.44038331 508.35642101 -237 498 C-238.61700515 491.46157493 -239.28830634 485.24169348 -239.24050903 478.52133179 C-239.24221788 477.62257312 -239.24392673 476.72381446 -239.24568737 475.79782069 C-239.24895552 472.81613919 -239.23802302 469.83468776 -239.22705078 466.85302734 C-239.22648609 464.70379644 -239.22680436 462.55456515 -239.22793579 460.40533447 C-239.22850804 454.59202837 -239.21677446 448.77880533 -239.20278788 442.96551847 C-239.19025915 436.88234093 -239.18910833 430.79916135 -239.18673706 424.7159729 C-239.18052859 413.20609826 -239.16412632 401.69626175 -239.14403808 390.18640387 C-239.12165939 377.07880878 -239.11068069 363.97121185 -239.10064721 350.8636024 C-239.07975955 323.90904715 -239.04459587 296.95452572 -239 270 C-237.73325992 269.52086062 -236.46612444 269.04276652 -235.19882584 268.56510639 C-234.49323288 268.29875427 -233.78763993 268.03240214 -233.06066537 267.75797874 C-230.30730337 266.74520399 -227.52311914 265.86792935 -224.71777344 265.01049805 C-223.5416449 264.6496965 -222.36551636 264.28889496 -221.15374756 263.91716003 C-219.27553314 263.3452166 -219.27553314 263.3452166 -217.359375 262.76171875 C-216.02860368 262.35459979 -214.69789614 261.94727227 -213.36724854 261.53974915 C-209.87072453 260.46958874 -206.37326089 259.40253132 -202.87561035 258.33605957 C-199.38517852 257.27106995 -195.89578665 256.20268389 -192.40625 255.13476562 C-185.7936918 253.11173389 -179.17876397 251.09657981 -172.56274414 249.0848999 C-169.26131407 248.07957339 -165.96155128 247.06895688 -162.66210938 246.05712891 C-160.84252187 245.50268692 -159.02286633 244.94846816 -157.203125 244.39453125 C-155.9929068 244.02106819 -155.9929068 244.02106819 -154.75823975 243.64006042 C-151.73461998 242.72448936 -149.17845447 242 -146 242 C-145.67 302.39 -145.34 362.78 -145 425 C-139.40083034 424.30010379 -134.52342929 423.46938058 -129.2109375 421.85546875 C-128.15055771 421.53888054 -128.15055771 421.53888054 -127.0687561 421.21589661 C-125.58715739 420.77118369 -124.10656075 420.32311944 -122.62695312 419.87182617 C-120.37716129 419.18815678 -118.1225885 418.5223188 -115.8671875 417.85742188 C-114.41894689 417.42034277 -112.97101878 416.98222659 -111.5234375 416.54296875 C-110.52478165 416.25053535 -110.52478165 416.25053535 -109.50595093 415.95219421 C-105.12795052 414.59494112 -101.64992087 412.76820614 -98 410 C-96.7736633 407.54732659 -96.86959058 405.95252702 -96.8613348 403.2092495 C-96.85586036 402.19159929 -96.85038591 401.17394908 -96.84474558 400.12546098 C-96.84376747 398.99902071 -96.84278936 397.87258044 -96.84178162 396.71200562 C-96.83684364 395.52198303 -96.83190566 394.33196044 -96.82681805 393.10587656 C-96.81407467 389.79252811 -96.80580899 386.47922199 -96.79939139 383.16585875 C-96.79140204 379.59665942 -96.77769924 376.02748161 -96.76467896 372.45829773 C-96.74289537 366.27104743 -96.72475778 360.08379498 -96.70907402 353.89652634 C-96.68639251 344.95069852 -96.65824732 336.00489452 -96.62875474 327.05908687 C-96.58105772 312.54623769 -96.53779927 298.03337878 -96.49731445 283.52050781 C-96.45797025 269.41991418 -96.41654662 255.31932919 -96.37231445 241.21875 C-96.36822804 239.9157146 -96.36822804 239.9157146 -96.36405908 238.58635525 C-96.35037978 234.22853168 -96.33665947 229.87070824 -96.32291877 225.51288486 C-96.20892086 189.34194118 -96.10211885 153.17097907 -96 117 C-97.06155155 117.34051761 -97.06155155 117.34051761 -98.14454859 117.68791437 C-101.39878744 118.7314643 -104.65327222 119.77424522 -107.90776062 120.8170166 C-109.02074634 121.17404789 -110.13373206 121.53107918 -111.28044462 121.8989296 C-120.58583467 124.8795109 -129.91628459 127.7675204 -139.26953125 130.59375 C-140.86090043 131.07554621 -142.45226485 131.55735813 -144.04362488 132.03918457 C-147.31369687 133.02863328 -150.58429708 134.01631317 -153.85522461 135.00292969 C-158.04266538 136.26641021 -162.22790133 137.53704682 -166.41272449 138.80916595 C-169.66891092 139.79769405 -172.92657081 140.78129265 -176.18466759 141.76350403 C-177.730972 142.23056554 -179.27672881 142.69944419 -180.82190895 143.17021179 C-182.96022325 143.82116828 -185.10051871 144.46515058 -187.24145508 145.10742188 C-189.06027946 145.65746887 -189.06027946 145.65746887 -190.91584778 146.21862793 C-194 147 -194 147 -198 147 C-196.57261033 136.49575365 -194.8589716 126.06150456 -193.03125 115.62109375 C-192.74740421 113.99398859 -192.46359138 112.36687768 -192.17980957 110.73976135 C-191.58975664 107.36031987 -190.99781961 103.98121439 -190.40478516 100.60229492 C-189.64643013 96.27927177 -188.89520092 91.95504185 -188.14560699 87.63049221 C-187.5642048 84.28324487 -186.97790643 80.93686871 -186.39024353 77.59071541 C-186.11098185 75.99587043 -185.83350327 74.40071212 -185.55787659 72.80523491 C-185.17329336 70.58202656 -184.78183361 68.36013275 -184.38867188 66.13842773 C-184.1682019 64.87715561 -183.94773193 63.61588348 -183.72058105 62.31639099 C-182.50113603 56.70403625 -182.50113603 56.70403625 -181 54 C-178.91714478 52.83218384 -178.91714478 52.83218384 -176.28759766 52.05322266 C-175.28881592 51.74655167 -174.29003418 51.43988068 -173.26098633 51.12391663 C-172.15650146 50.80716476 -171.0520166 50.4904129 -169.9140625 50.1640625 C-168.7475415 49.81198227 -167.58102051 49.45990204 -166.37915039 49.09715271 C-163.82021988 48.3279305 -161.26032361 47.56647427 -158.69561768 46.81716919 C-154.56906094 45.61153117 -150.4508818 44.37887214 -146.33349609 43.14233398 C-141.1575229 41.59010572 -135.97939697 40.04541897 -130.79860878 38.50933743 C-120.31165595 35.39973045 -109.84104248 32.23779277 -99.375 29.05859375 C-97.72447447 28.55737014 -96.07394652 28.05615453 -94.42341614 27.5549469 C-91.95129085 26.80423189 -89.47916936 26.05350448 -87.00708485 25.30265522 C-78.13646029 22.6090632 -69.26179732 19.92887332 -60.38671875 17.25 C-57.3715683 16.33988922 -54.35642534 15.42975367 -51.34130859 14.51953125 C-50.62599 14.30358842 -49.91067141 14.08764559 -49.17367649 13.86515903 C-43.61612097 12.18700053 -38.06020028 10.50348248 -32.50482178 8.81813049 C-28.66262537 7.65306486 -24.81949045 6.49112415 -20.97601318 5.33029175 C-19.30635628 4.82529189 -17.63711314 4.31892163 -15.96832275 3.81106567 C-13.77036688 3.14239925 -11.57098188 2.47868238 -9.37109375 1.81640625 C-8.19474365 1.46006104 -7.01839355 1.10371582 -5.80639648 0.73657227 C-3 0 -3 0 0 0 Z " fill="#000000" transform="translate(927,1239)"/>
<path d="M0 0 C2.08953148 10.37821281 4.17596527 20.75704304 6.25842285 31.13667774 C7.2254398 35.95609233 8.19353122 40.77528593 9.1640625 45.59399414 C10.10025825 50.24242849 11.03365204 54.89141735 11.96508789 59.54080772 C12.32132785 61.31645526 12.67858498 63.09189902 13.03686523 64.867136 C13.53767033 67.34945371 14.03488685 69.83246469 14.53125 72.31567383 C14.68086182 73.05294708 14.83047363 73.79022034 14.98461914 74.54983521 C15.55597274 77.42410541 16 80.0607235 16 83 C-17.9039954 93.6702018 -51.92563701 103.88546889 -86 114 C-86.33 149.97 -86.66 185.94 -87 223 C-62.07745322 215.43367867 -62.07745322 215.43367867 -37.15673828 207.86132812 C-32.34155273 206.40136719 -32.34155273 206.40136719 -30.08883667 205.71911621 C-28.51194837 205.24096914 -26.93539335 204.76172212 -25.35910034 204.28161621 C-22.97471019 203.55561211 -20.58929365 202.83307938 -18.20361328 202.11132812 C-17.49881395 201.89585579 -16.79401463 201.68038345 -16.06785774 201.45838165 C-11.22805267 200 -11.22805267 200 -9 200 C-9 227.06 -9 254.12 -9 282 C-22.99725822 286.34238374 -36.99553712 290.68097812 -51 295 C-52.30735107 295.40324493 -52.30735107 295.40324493 -53.64111328 295.81463623 C-58.35810594 297.26867938 -63.07660248 298.7176433 -67.79763794 300.1585083 C-69.22050854 300.59337071 -70.64293669 301.02968355 -72.06491089 301.46746826 C-74.03035326 302.07217956 -75.99733408 302.67158632 -77.96484375 303.26953125 C-79.0643335 303.60573486 -80.16382324 303.94193848 -81.29663086 304.28833008 C-84 305 -84 305 -87 305 C-86.67 338 -86.34 371 -86 405 C-61.88907755 397.7012006 -61.88907755 397.7012006 -37.77832031 390.40185547 C-30.6662786 388.24879002 -23.55362398 386.09776016 -16.44054794 383.9481144 C-12.01058389 382.60902828 -7.58195173 381.26565253 -3.15429688 379.91894531 C-1.32684387 379.36516524 0.50062771 378.81144642 2.328125 378.2578125 C3.11483582 378.01715057 3.90154663 377.77648865 4.71209717 377.52853394 C9.77284852 376 9.77284852 376 12 376 C11.25311428 385.48090027 9.54987609 394.76736617 7.875 404.1171875 C7.56465406 405.86446111 7.25460039 407.61178666 6.94482422 409.35916138 C6.29819125 413.00222318 5.64910889 416.64483653 4.99804688 420.28710938 C4.16394347 424.95365432 3.33438538 429.62099246 2.50643921 434.28863335 C1.86767651 437.8884725 1.22736054 441.48803384 0.58648682 445.08749771 C0.28000264 446.8090315 -0.02619264 448.53061674 -0.33209229 450.25225449 C-0.75900296 452.6526442 -1.18780277 455.0526885 -1.6171875 457.45263672 C-1.74293152 458.16125351 -1.86867554 458.8698703 -1.99822998 459.59996033 C-2.32172299 461.40187727 -2.66001892 463.20112111 -3 465 C-3.12059784 465.78323135 -3.24119568 466.56646271 -3.365448 467.37342834 C-4 469 -4 469 -7.53564453 470.57250977 C-9.1872981 471.10928911 -10.84544514 471.62628677 -12.5078125 472.12890625 C-13.43401398 472.42277725 -14.36021545 472.71664825 -15.31448364 473.01942444 C-18.53699158 474.03342415 -21.76747406 475.01842391 -25 476 C-26.17816284 476.36132019 -27.35632568 476.72264038 -28.57019043 477.09490967 C-37.5566331 479.84866771 -46.55791873 482.55173089 -55.56254959 485.24531555 C-61.96494311 487.16174031 -68.3649859 489.08601565 -74.76532936 491.00927353 C-76.44002654 491.51247493 -78.11475898 492.01555902 -79.78952599 492.51852798 C-93.22607264 496.55414061 -106.65276582 500.62151722 -120.07421875 504.70703125 C-120.97909279 504.9824066 -121.88396683 505.25778194 -122.81626129 505.541502 C-131.66946166 508.23582798 -140.52202032 510.93224423 -149.37325954 513.6330061 C-152.6465586 514.63135055 -155.92033483 515.62812336 -159.1942234 516.6245327 C-160.71168146 517.08679175 -162.22891961 517.54977342 -163.74591637 518.01354408 C-165.82949219 518.65049567 -167.91380328 519.28498549 -169.99829102 519.91894531 C-171.74650902 520.45228485 -171.74650902 520.45228485 -173.53004456 520.99639893 C-177.32667199 522.09448201 -181.16576826 523.04144206 -185 524 C-185 369.23 -185 214.46 -185 55 C-124.6960293 36.44493209 -124.6960293 36.44493209 -97.35919189 28.1932869 C-92.54322876 26.73952458 -87.72756433 25.2847729 -82.91184044 23.83021832 C-82.10468401 23.58642343 -81.29752758 23.34262854 -80.46591187 23.09144592 C-79.66032207 22.8481209 -78.85473228 22.60479588 -78.02473068 22.35409737 C-75.62156679 21.628315 -73.21833165 20.90276891 -70.81509399 20.17723083 C-61.35501411 17.32049644 -51.8991923 14.4501391 -42.44701958 11.56735611 C-38.11658765 10.24731245 -33.78499867 8.93106832 -29.45358276 7.61425781 C-27.16988685 6.9187786 -24.88677393 6.22138187 -22.60427856 5.52197266 C-19.50849533 4.57351963 -16.41077265 3.63168917 -13.3125 2.69140625 C-11.9667112 2.2760537 -11.9667112 2.2760537 -10.59373474 1.85231018 C-9.77518509 1.60528854 -8.95663544 1.35826691 -8.11328125 1.10375977 C-7.40985596 0.8888942 -6.70643066 0.67402863 -5.98168945 0.45265198 C-4 0 -4 0 0 0 Z " fill="#000000" transform="translate(1151,1171)"/>
<path d="M0 0 C10.87950086 8.37903719 18.96972887 19.292948 21.56640625 32.9765625 C23.17369005 49.75991651 21.01456791 64.30207689 10.56640625 77.9765625 C2.44494402 87.70205574 -9.03908023 94.29204299 -21.43359375 96.9765625 C-39.86709958 98.41559467 -55.94026679 96.07390895 -70.71484375 84.1328125 C-81.67799464 73.84431705 -87.39999479 61.12390779 -87.90429688 46.18261719 C-88.07400351 30.14534034 -83.77089015 17.53465382 -72.62109375 5.6640625 C-53.2919007 -12.54783615 -21.81359123 -14.92341758 0 0 Z M-63.8359375 15.86328125 C-71.53474948 26.04679538 -74.6421046 37.38663299 -73.43359375 49.9765625 C-71.1118944 61.75188794 -65.52249663 72.14871914 -55.43359375 78.9765625 C-45.45208948 85.12297765 -34.98468586 87.27004021 -23.43359375 84.9765625 C-13.14760061 82.03116684 -4.48833137 75.83032724 1.56640625 66.9765625 C7.45610471 55.27325987 9.5580795 44.08998483 5.94140625 31.2890625 C2.30389785 20.60627468 -4.26454614 11.47270849 -14.37109375 6.1640625 C-31.73544314 -1.78588059 -50.58812732 1.73854746 -63.8359375 15.86328125 Z " fill="#000000" transform="translate(2798.43359375,711.0234375)"/>
<path d="M0 0 C3.22284193 2.60896728 5.30906923 4.52575356 6.12890625 8.67578125 C6.26138361 14.91988067 5.57609659 18.39878211 1.23046875 22.98046875 C-0.375 24.125 -0.375 24.125 -3.375 24.125 C-3.375 24.785 -3.375 25.445 -3.375 26.125 C-2.776875 26.351875 -2.17875 26.57875 -1.5625 26.8125 C2.82898296 29.44738977 4.02734378 33.93112595 5.26171875 38.70117188 C5.50341797 39.6844043 5.50341797 39.6844043 5.75 40.6875 C6.00330078 41.6765332 6.00330078 41.6765332 6.26171875 42.68554688 C6.72406221 44.49669546 7.17498466 46.31074895 7.625 48.125 C8.12 50.105 8.12 50.105 8.625 52.125 C4.005 52.125 -0.615 52.125 -5.375 52.125 C-7.93484198 47.00531603 -9.23467428 43.06497168 -10.43359375 37.61328125 C-11.31515962 34.61162499 -11.31515962 34.61162499 -15.375 32.125 C-18.675 31.795 -21.975 31.465 -25.375 31.125 C-25.375 38.055 -25.375 44.985 -25.375 52.125 C-29.995 52.125 -34.615 52.125 -39.375 52.125 C-39.375 34.305 -39.375 16.485 -39.375 -1.875 C-10.73863636 -5.96590909 -10.73863636 -5.96590909 0 0 Z M-25.375 7.125 C-25.375 11.745 -25.375 16.365 -25.375 21.125 C-16.84435396 21.68889251 -16.84435396 21.68889251 -9.375 18.125 C-8.0440684 14.72530189 -8.0440684 14.72530189 -8.375 11.125 C-10.10680007 8.68765175 -11.4331112 7.51474709 -14.1875 6.375 C-19.9388111 5.660299 -19.9388111 5.660299 -25.375 7.125 Z " fill="#000000" transform="translate(2783.375,730.875)"/>
</svg>
